<svg width="52" height="52" viewBox="0 0 52 52" fill="none" xmlns="http://www.w3.org/2000/svg">
<g filter="url(#filter0_d_1459_869)">
<circle cx="26" cy="27" r="19" fill="white"/>
</g>
<g clip-path="url(#clip0_1459_869)">
<path d="M27.729 25.636V22.3939H28.3048C28.4575 22.3939 28.6039 22.3333 28.7119 22.2253C28.8199 22.1173 28.8805 21.9709 28.8805 21.8182C28.8805 21.6655 28.8199 21.519 28.7119 21.4111C28.6039 21.3031 28.4575 21.2424 28.3048 21.2424H23.6987C23.546 21.2424 23.3995 21.3031 23.2916 21.4111C23.1836 21.519 23.1229 21.6655 23.1229 21.8182C23.1229 21.9709 23.1836 22.1173 23.2916 22.2253C23.3995 22.3333 23.546 22.3939 23.6987 22.3939H24.2745V25.636L21.265 30.0584C20.4848 31.2053 21.3064 32.7576 22.6928 32.7576H29.31C30.6976 32.7576 31.5186 31.2053 30.7379 30.0584L27.729 25.6366V25.636Z" fill="#DCDDDF"/>
</g>
<defs>
<filter id="filter0_d_1459_869" x="0" y="0" width="52" height="52" filterUnits="userSpaceOnUse" color-interpolation-filters="sRGB">
<feFlood flood-opacity="0" result="BackgroundImageFix"/>
<feColorMatrix in="SourceAlpha" type="matrix" values="0 0 0 0 0 0 0 0 0 0 0 0 0 0 0 0 0 0 127 0" result="hardAlpha"/>
<feOffset dy="-1"/>
<feGaussianBlur stdDeviation="3.5"/>
<feComposite in2="hardAlpha" operator="out"/>
<feColorMatrix type="matrix" values="0 0 0 0 0.279167 0 0 0 0 0.279167 0 0 0 0 0.279167 0 0 0 0.05 0"/>
<feBlend mode="normal" in2="BackgroundImageFix" result="effect1_dropShadow_1459_869"/>
<feBlend mode="normal" in="SourceGraphic" in2="effect1_dropShadow_1459_869" result="shape"/>
</filter>
<clipPath id="clip0_1459_869">
<rect width="13.8182" height="13.8182" fill="white" transform="translate(19.0918 20.0909)"/>
</clipPath>
</defs>
</svg>
