<svg width="52" height="52" viewBox="0 0 52 52" fill="none" xmlns="http://www.w3.org/2000/svg">
<g filter="url(#filter0_d_1459_856)">
<circle cx="26" cy="27" r="19" fill="#59B17A"/>
</g>
<path fill-rule="evenodd" clip-rule="evenodd" d="M22.5456 21.2424C22.0875 21.2424 21.6482 21.4244 21.3243 21.7483C21.0003 22.0722 20.8184 22.5116 20.8184 22.9697V31.0303C20.8184 31.4884 21.0003 31.9277 21.3243 32.2516C21.6482 32.5756 22.0875 32.7576 22.5456 32.7576H26.0002C26.4583 32.7576 26.8976 32.5756 27.2215 32.2516C27.5455 31.9277 27.7275 31.4884 27.7275 31.0303V22.9697C27.7275 22.5116 27.5455 22.0722 27.2215 21.7483C26.8976 21.4244 26.4583 21.2424 26.0002 21.2424H22.5456ZM28.4719 24.2899C28.5799 24.1819 28.7263 24.1213 28.879 24.1213C29.0316 24.1213 29.1781 24.1819 29.286 24.2899L31.5891 26.5929C31.697 26.7009 31.7576 26.8473 31.7576 27C31.7576 27.1526 31.697 27.2991 31.5891 27.407L29.286 29.7101C29.1774 29.8149 29.032 29.873 28.881 29.8717C28.7301 29.8704 28.5857 29.8098 28.4789 29.7031C28.3722 29.5963 28.3116 29.4519 28.3103 29.3009C28.309 29.15 28.367 29.0045 28.4719 28.8959L29.7921 27.5757H24.8487C24.696 27.5757 24.5495 27.5151 24.4415 27.4071C24.3336 27.2991 24.2729 27.1527 24.2729 27C24.2729 26.8473 24.3336 26.7008 24.4415 26.5929C24.5495 26.4849 24.696 26.4242 24.8487 26.4242H29.7921L28.4719 25.104C28.364 24.996 28.3033 24.8496 28.3033 24.6969C28.3033 24.5443 28.364 24.3979 28.4719 24.2899Z" fill="white"/>
<defs>
<filter id="filter0_d_1459_856" x="0" y="0" width="52" height="52" filterUnits="userSpaceOnUse" color-interpolation-filters="sRGB">
<feFlood flood-opacity="0" result="BackgroundImageFix"/>
<feColorMatrix in="SourceAlpha" type="matrix" values="0 0 0 0 0 0 0 0 0 0 0 0 0 0 0 0 0 0 127 0" result="hardAlpha"/>
<feOffset dy="-1"/>
<feGaussianBlur stdDeviation="3.5"/>
<feComposite in2="hardAlpha" operator="out"/>
<feColorMatrix type="matrix" values="0 0 0 0 0.279167 0 0 0 0 0.279167 0 0 0 0 0.279167 0 0 0 0.05 0"/>
<feBlend mode="normal" in2="BackgroundImageFix" result="effect1_dropShadow_1459_856"/>
<feBlend mode="normal" in="SourceGraphic" in2="effect1_dropShadow_1459_856" result="shape"/>
</filter>
</defs>
</svg>
