<svg width="52" height="52" viewBox="0 0 52 52" fill="none" xmlns="http://www.w3.org/2000/svg">
<g filter="url(#filter0_d_1459_879)">
<circle cx="26" cy="27" r="19" fill="white"/>
</g>
<path d="M28.3047 29.8787V31.0303H20.2441V29.8787C20.2441 29.8787 20.2441 27.5757 24.2744 27.5757C28.3047 27.5757 28.3047 29.8787 28.3047 29.8787ZM26.2896 24.409C26.2896 24.0105 26.1714 23.6209 25.95 23.2895C25.7286 22.9581 25.4138 22.6998 25.0456 22.5473C24.6774 22.3948 24.2722 22.3549 23.8813 22.4326C23.4904 22.5104 23.1313 22.7023 22.8495 22.9841C22.5677 23.2659 22.3758 23.625 22.298 24.0159C22.2203 24.4068 22.2602 24.812 22.4127 25.1802C22.5652 25.5484 22.8235 25.8632 23.1549 26.0846C23.4863 26.306 23.8759 26.4242 24.2744 26.4242C24.8089 26.4242 25.3215 26.2119 25.6994 25.834C26.0773 25.4561 26.2896 24.9435 26.2896 24.409ZM28.2702 27.5757C28.6241 27.8496 28.9138 28.1978 29.1187 28.5957C29.3236 28.9936 29.4388 29.4315 29.4563 29.8787V31.0303H31.7593V29.8787C31.7593 29.8787 31.7593 27.7887 28.2702 27.5757ZM27.729 22.3939C27.3327 22.3917 26.9451 22.5102 26.6178 22.7336C26.9675 23.2223 27.1556 23.8081 27.1556 24.409C27.1556 25.01 26.9675 25.5958 26.6178 26.0845C26.9451 26.3079 27.3327 26.4264 27.729 26.4242C28.2634 26.4242 28.776 26.2119 29.1539 25.834C29.5318 25.4561 29.7441 24.9435 29.7441 24.409C29.7441 23.8746 29.5318 23.362 29.1539 22.9841C28.776 22.6062 28.2634 22.3939 27.729 22.3939Z" fill="#DCDDDF"/>
<defs>
<filter id="filter0_d_1459_879" x="0" y="0" width="52" height="52" filterUnits="userSpaceOnUse" color-interpolation-filters="sRGB">
<feFlood flood-opacity="0" result="BackgroundImageFix"/>
<feColorMatrix in="SourceAlpha" type="matrix" values="0 0 0 0 0 0 0 0 0 0 0 0 0 0 0 0 0 0 127 0" result="hardAlpha"/>
<feOffset dy="-1"/>
<feGaussianBlur stdDeviation="3.5"/>
<feComposite in2="hardAlpha" operator="out"/>
<feColorMatrix type="matrix" values="0 0 0 0 0.279167 0 0 0 0 0.279167 0 0 0 0 0.279167 0 0 0 0.05 0"/>
<feBlend mode="normal" in2="BackgroundImageFix" result="effect1_dropShadow_1459_879"/>
<feBlend mode="normal" in="SourceGraphic" in2="effect1_dropShadow_1459_879" result="shape"/>
</filter>
</defs>
</svg>
